<?xml version="1.0" encoding="UTF-8" standalone="no"?>
<!DOCTYPE svg PUBLIC "-//W3C//DTD SVG 1.1//EN"
 "http://www.w3.org/Graphics/SVG/1.1/DTD/svg11.dtd">
<!-- Generated by graphviz version 5.0.0 (20220707.1540)
 -->
<!-- Title: dependencies Pages: 1 -->
<svg width="1505pt" height="247pt"
 viewBox="0.00 0.00 1505.00 246.80" xmlns="http://www.w3.org/2000/svg" xmlns:xlink="http://www.w3.org/1999/xlink">
<g id="graph0" class="graph" transform="scale(1 1) rotate(0) translate(4 242.8)">
<title>dependencies</title>
<polygon fill="white" stroke="transparent" points="-4,4 -4,-242.8 1501,-242.8 1501,4 -4,4"/>
<text text-anchor="middle" x="748.5" y="-8.2" font-family="sans-serif" font-size="14.00">dependencies</text>
<g id="clust1" class="cluster">
<title>cluster_AppModule</title>
<polygon fill="none" stroke="black" stroke-dasharray="1,5" points="8,-32.8 8,-230.8 1489,-230.8 1489,-32.8 8,-32.8"/>
</g>
<g id="clust14" class="cluster">
<title>cluster_AppModule_providers</title>
<polygon fill="none" stroke="black" points="1283,-40.8 1283,-92.8 1481,-92.8 1481,-40.8 1283,-40.8"/>
</g>
<g id="clust11" class="cluster">
<title>cluster_AppModule_imports</title>
<polygon fill="none" stroke="black" points="1131,-40.8 1131,-92.8 1275,-92.8 1275,-40.8 1131,-40.8"/>
</g>
<g id="clust13" class="cluster">
<title>cluster_AppModule_bootstrap</title>
<polygon fill="none" stroke="black" points="631,-170.8 631,-222.8 755,-222.8 755,-170.8 631,-170.8"/>
</g>
<g id="clust2" class="cluster">
<title>cluster_AppModule_declarations</title>
<polygon fill="none" stroke="black" points="16,-40.8 16,-92.8 1123,-92.8 1123,-40.8 16,-40.8"/>
</g>
<!-- AppComponent -->
<g id="node1" class="node">
<title>AppComponent</title>
<polygon fill="#ffffb3" stroke="black" points="1114.94,-84.8 1009.06,-84.8 1009.06,-48.8 1114.94,-48.8 1114.94,-84.8"/>
<text text-anchor="middle" x="1062" y="-62.6" font-family="Times,serif" font-size="14.00">AppComponent</text>
</g>
<!-- AppModule -->
<g id="node9" class="node">
<title>AppModule</title>
<polygon fill="#8dd3c7" stroke="black" points="734.66,-149.8 731.66,-153.8 710.66,-153.8 707.66,-149.8 651.34,-149.8 651.34,-113.8 734.66,-113.8 734.66,-149.8"/>
<text text-anchor="middle" x="693" y="-127.6" font-family="Times,serif" font-size="14.00">AppModule</text>
</g>
<!-- AppComponent&#45;&gt;AppModule -->
<g id="edge1" class="edge">
<title>AppComponent&#45;&gt;AppModule</title>
<path fill="none" stroke="black" d="M1062,-85.07C1062,-103.36 1062,-128.8 1062,-128.8 1062,-128.8 744.97,-128.8 744.97,-128.8"/>
<polygon fill="black" stroke="black" points="744.97,-125.3 734.97,-128.8 744.97,-132.3 744.97,-125.3"/>
</g>
<!-- ConfirmationDialog -->
<g id="node2" class="node">
<title>ConfirmationDialog</title>
<polygon fill="#ffffb3" stroke="black" points="991.54,-84.8 862.46,-84.8 862.46,-48.8 991.54,-48.8 991.54,-84.8"/>
<text text-anchor="middle" x="927" y="-62.6" font-family="Times,serif" font-size="14.00">ConfirmationDialog</text>
</g>
<!-- ConfirmationDialog&#45;&gt;AppModule -->
<g id="edge2" class="edge">
<title>ConfirmationDialog&#45;&gt;AppModule</title>
<path fill="none" stroke="black" d="M927,-84.81C927,-100.85 927,-121.8 927,-121.8 927,-121.8 744.83,-121.8 744.83,-121.8"/>
<polygon fill="black" stroke="black" points="744.83,-118.3 734.83,-121.8 744.83,-125.3 744.83,-118.3"/>
</g>
<!-- DashboardComponent -->
<g id="node3" class="node">
<title>DashboardComponent</title>
<polygon fill="#ffffb3" stroke="black" points="843.98,-84.8 702.02,-84.8 702.02,-48.8 843.98,-48.8 843.98,-84.8"/>
<text text-anchor="middle" x="773" y="-62.6" font-family="Times,serif" font-size="14.00">DashboardComponent</text>
</g>
<!-- DashboardComponent&#45;&gt;AppModule -->
<g id="edge3" class="edge">
<title>DashboardComponent&#45;&gt;AppModule</title>
<path fill="none" stroke="black" d="M718.42,-84.91C718.42,-84.91 718.42,-103.79 718.42,-103.79"/>
<polygon fill="black" stroke="black" points="714.92,-103.79 718.42,-113.79 721.92,-103.79 714.92,-103.79"/>
</g>
<!-- FragmentsComponent -->
<g id="node4" class="node">
<title>FragmentsComponent</title>
<polygon fill="#ffffb3" stroke="black" points="684.44,-84.8 543.56,-84.8 543.56,-48.8 684.44,-48.8 684.44,-84.8"/>
<text text-anchor="middle" x="614" y="-62.6" font-family="Times,serif" font-size="14.00">FragmentsComponent</text>
</g>
<!-- FragmentsComponent&#45;&gt;AppModule -->
<g id="edge4" class="edge">
<title>FragmentsComponent&#45;&gt;AppModule</title>
<path fill="none" stroke="black" d="M667.69,-84.91C667.69,-84.91 667.69,-103.79 667.69,-103.79"/>
<polygon fill="black" stroke="black" points="664.19,-103.79 667.69,-113.79 671.19,-103.79 664.19,-103.79"/>
</g>
<!-- LoginComponent -->
<g id="node5" class="node">
<title>LoginComponent</title>
<polygon fill="#ffffb3" stroke="black" points="525.27,-84.8 410.73,-84.8 410.73,-48.8 525.27,-48.8 525.27,-84.8"/>
<text text-anchor="middle" x="468" y="-62.6" font-family="Times,serif" font-size="14.00">LoginComponent</text>
</g>
<!-- LoginComponent&#45;&gt;AppModule -->
<g id="edge5" class="edge">
<title>LoginComponent&#45;&gt;AppModule</title>
<path fill="none" stroke="black" d="M468,-84.81C468,-100.85 468,-121.8 468,-121.8 468,-121.8 641.21,-121.8 641.21,-121.8"/>
<polygon fill="black" stroke="black" points="641.21,-125.3 651.21,-121.8 641.21,-118.3 641.21,-125.3"/>
</g>
<!-- SafeHtmlPipe -->
<g id="node6" class="node">
<title>SafeHtmlPipe</title>
<polygon fill="#ffffb3" stroke="black" points="392.05,-84.8 297.95,-84.8 297.95,-48.8 392.05,-48.8 392.05,-84.8"/>
<text text-anchor="middle" x="345" y="-62.6" font-family="Times,serif" font-size="14.00">SafeHtmlPipe</text>
</g>
<!-- SafeHtmlPipe&#45;&gt;AppModule -->
<g id="edge6" class="edge">
<title>SafeHtmlPipe&#45;&gt;AppModule</title>
<path fill="none" stroke="black" d="M345,-85.07C345,-103.36 345,-128.8 345,-128.8 345,-128.8 641.02,-128.8 641.02,-128.8"/>
<polygon fill="black" stroke="black" points="641.02,-132.3 651.02,-128.8 641.02,-125.3 641.02,-132.3"/>
</g>
<!-- ScansionComponent -->
<g id="node7" class="node">
<title>ScansionComponent</title>
<polygon fill="#ffffb3" stroke="black" points="279.88,-84.8 148.12,-84.8 148.12,-48.8 279.88,-48.8 279.88,-84.8"/>
<text text-anchor="middle" x="214" y="-62.6" font-family="Times,serif" font-size="14.00">ScansionComponent</text>
</g>
<!-- ScansionComponent&#45;&gt;AppModule -->
<g id="edge7" class="edge">
<title>ScansionComponent&#45;&gt;AppModule</title>
<path fill="none" stroke="black" d="M214,-84.93C214,-105.37 214,-135.8 214,-135.8 214,-135.8 641.33,-135.8 641.33,-135.8"/>
<polygon fill="black" stroke="black" points="641.33,-139.3 651.33,-135.8 641.33,-132.3 641.33,-139.3"/>
</g>
<!-- TextComponent -->
<g id="node8" class="node">
<title>TextComponent</title>
<polygon fill="#ffffb3" stroke="black" points="130.49,-84.8 23.51,-84.8 23.51,-48.8 130.49,-48.8 130.49,-84.8"/>
<text text-anchor="middle" x="77" y="-62.6" font-family="Times,serif" font-size="14.00">TextComponent</text>
</g>
<!-- TextComponent&#45;&gt;AppModule -->
<g id="edge8" class="edge">
<title>TextComponent&#45;&gt;AppModule</title>
<path fill="none" stroke="black" d="M77,-84.81C77,-107.29 77,-142.8 77,-142.8 77,-142.8 641.14,-142.8 641.14,-142.8"/>
<polygon fill="black" stroke="black" points="641.14,-146.3 651.14,-142.8 641.14,-139.3 641.14,-146.3"/>
</g>
<!-- AppComponent  -->
<g id="node11" class="node">
<title>AppComponent </title>
<polygon fill="#80b1d3" stroke="black" points="747.44,-214.8 638.56,-214.8 638.56,-178.8 747.44,-178.8 747.44,-214.8"/>
<text text-anchor="middle" x="693" y="-192.6" font-family="Times,serif" font-size="14.00">AppComponent </text>
</g>
<!-- AppModule&#45;&gt;AppComponent  -->
<g id="edge10" class="edge">
<title>AppModule&#45;&gt;AppComponent </title>
<path fill="none" stroke="black" stroke-dasharray="1,5" d="M693,-149.91C693,-149.91 693,-168.79 693,-168.79"/>
<polygon fill="black" stroke="black" points="689.5,-168.79 693,-178.79 696.5,-168.79 689.5,-168.79"/>
</g>
<!-- AppRoutingModule -->
<g id="node10" class="node">
<title>AppRoutingModule</title>
<polygon fill="#8dd3c7" stroke="black" points="1267.28,-84.8 1264.28,-88.8 1243.28,-88.8 1240.28,-84.8 1138.72,-84.8 1138.72,-48.8 1267.28,-48.8 1267.28,-84.8"/>
<text text-anchor="middle" x="1203" y="-62.6" font-family="Times,serif" font-size="14.00">AppRoutingModule</text>
</g>
<!-- AppRoutingModule&#45;&gt;AppModule -->
<g id="edge9" class="edge">
<title>AppRoutingModule&#45;&gt;AppModule</title>
<path fill="none" stroke="black" d="M1203,-84.93C1203,-105.37 1203,-135.8 1203,-135.8 1203,-135.8 744.74,-135.8 744.74,-135.8"/>
<polygon fill="black" stroke="black" points="744.74,-132.3 734.74,-135.8 744.74,-139.3 744.74,-132.3"/>
</g>
<!-- HttpErrorInterceptor -->
<g id="node12" class="node">
<title>HttpErrorInterceptor</title>
<ellipse fill="#fdb462" stroke="black" cx="1382" cy="-66.8" rx="90.87" ry="18"/>
<text text-anchor="middle" x="1382" y="-62.6" font-family="Times,serif" font-size="14.00">HttpErrorInterceptor</text>
</g>
<!-- HttpErrorInterceptor&#45;&gt;AppModule -->
<g id="edge11" class="edge">
<title>HttpErrorInterceptor&#45;&gt;AppModule</title>
<path fill="none" stroke="black" d="M1382,-84.81C1382,-107.29 1382,-142.8 1382,-142.8 1382,-142.8 744.81,-142.8 744.81,-142.8"/>
<polygon fill="black" stroke="black" points="744.81,-139.3 734.81,-142.8 744.81,-146.3 744.81,-139.3"/>
</g>
</g>
</svg>
